<svg xmlns="http://www.w3.org/2000/svg" width="33" height="64" viewBox="0 0 128 128">
  <g fill="none" fill-rule="evenodd">
    <path fill="#6C65F7" d="M34.022 120.066c18.572 9.891 41.059 9.891 59.684 0 .582-.317.687-1.058.211-1.534L64.87 89.494c-.582-.582-1.481-.582-2.01 0l-29.05 29.038c-.476.423-.37 1.217.212 1.534zm85.928-26.235c9.894-18.565 9.894-41.044 0-59.662-.318-.582-1.059-.688-1.535-.212L89.367 62.995c-.582.582-.582 1.481 0 2.01l29.048 29.038c.423.476 1.217.37 1.535-.212zM7.778 34.169c-9.894 18.565-9.894 41.044 0 59.662.317.582 1.058.688 1.534.212l29.049-29.038c.582-.582.582-1.481 0-2.01L9.312 33.957c-.423-.476-1.217-.37-1.534.212zm107.568-5.289c.476-.477.582-1.27.159-1.852-2.01-2.75-4.233-5.448-6.72-7.934C88.573-1.11 58.044-4.866 34.075 7.934c-.582.317-.688 1.058-.212 1.534l49.472 49.454c.582.582 1.482.582 2.01 0l30.001-30.043z"/>
    <path fill="#FFD100" d="M79.155 62.995L28.731 12.588c-.476-.476-1.27-.581-1.852-.158-2.752 2.01-5.45 4.231-7.937 6.717a63.49 63.49 0 0 0-6.72 7.934c-.423.582-.317 1.322.16 1.851l35.132 35.12L12.54 99.016c-.582.582-.688 1.587-.159 2.274a63.71 63.71 0 0 0 6.561 7.67 63.72 63.72 0 0 0 7.672 6.558c.688.53 1.64.423 2.275-.158l35.98-35.967 2.699-2.698 9.1-9.097 2.487-2.486c.582-.635.582-1.587 0-2.116z"/>
    <path fill="#6C65F7" d="M126.775 113.031l-13.863 13.858c-.687.688-1.799.688-2.434 0L68.943 85.37c-.582-.582-.582-1.481 0-2.01L83.23 69.078c.582-.582 1.482-.582 2.01 0l41.536 41.52a1.692 1.692 0 0 1 0 2.433z"/>
  </g>
</svg> 